<?xml version="1.0" encoding="UTF-8"?>
<svg width="208px" height="70px" viewBox="0 0 208 70" version="1.1" xmlns="http://www.w3.org/2000/svg" xmlns:xlink="http://www.w3.org/1999/xlink">
    <title>Group</title>
    <g id="Website-Lebbe" stroke="none" stroke-width="1" fill="none" fill-rule="evenodd">
        <g id="Desktop---Over" transform="translate(-163.000000, -74.000000)" fill-rule="nonzero">
            <g id="Group" transform="translate(163.810000, 74.123168)">
                <path d="M0.105665641,4.51961397 L0.105665641,44.0662362 L4.90775548,44.0662362 L11.9696523,44.0662362 C15.8113242,44.0662362 19.2198664,43.2376403 22.1952789,41.5804485 C25.1706914,39.9232567 27.5058253,37.6163704 29.2006805,34.6597896 C30.8955358,31.7032088 31.7429634,28.2475873 31.7429634,24.2929251 C31.7429634,20.3382628 30.8955358,16.8826413 29.2006805,13.9260605 C27.5058253,10.9694797 25.1706914,8.66259343 22.1952789,7.00540165 C19.2198664,5.34820986 15.8113242,4.51961397 11.9696523,4.51961397 L2.76093885,4.51961397 L0.105665641,4.51961397 Z M4.90775548,9.3217038 L11.9696523,9.3217038 C14.1917958,9.3217038 16.2256221,9.67009071 18.0711312,10.3668645 C19.9166402,11.0636384 21.4985051,12.0617198 22.8167258,13.3611088 C24.1349466,14.6604978 25.1518597,16.2329468 25.8674652,18.0784559 C26.5830708,19.9239649 26.9408736,21.9954546 26.9408736,24.2929251 C26.9408736,26.5903955 26.5830708,28.6618852 25.8674652,30.5073943 C25.1518597,32.3529033 24.1349466,33.9253523 22.8167258,35.2247413 C21.4985051,36.5241304 19.9166402,37.5222118 18.0711312,38.2189856 C16.2256221,38.9157594 14.1917958,39.2641463 11.9696523,39.2641463 L4.90775548,39.2651552 L4.90775548,9.3217038 Z M39.9067262,44.0662362 L39.9065161,28.2475873 L39.912464,27.7876813 C39.9392403,26.7289852 40.0597339,25.7712155 40.2739448,24.914372 C40.5187572,23.9351223 40.9613028,23.1630216 41.6015814,22.5980698 C42.2418601,22.0331181 43.1269511,21.7506422 44.2568546,21.7506422 C45.0101236,21.7506422 45.6315705,21.8542167 46.1211954,22.0613657 C46.6108202,22.2685146 47.1569402,22.5980698 47.7595554,23.0500312 L50.2453431,19.3213497 C49.567401,18.6057442 48.8235479,18.1255352 48.0137837,17.8807228 C47.2040196,17.6359103 46.3283443,17.5135041 45.3867581,17.5135041 C44.1815277,17.5135041 42.995129,17.9842972 41.8275621,18.9258835 C41.1090594,19.5053212 40.4725694,20.2095608 39.9180921,21.0386024 L39.9065161,21.0565586 L39.9067262,18.0784559 L35.3871122,18.0784559 L35.3871122,44.0662362 L39.9067262,44.0662362 Z M52.7595884,44.9136638 C53.6258478,44.9136638 54.360285,44.6029403 54.9629002,43.9814934 C55.5655154,43.3600465 55.866823,42.6350251 55.866823,41.8064292 C55.866823,40.9401698 55.5655154,40.2057326 54.9629002,39.6031174 C54.360285,39.0005022 53.6258478,38.6991946 52.7595884,38.6991946 C51.9309925,38.6991946 51.2059711,39.0005022 50.5845242,39.6031174 C49.9630773,40.2057326 49.6523538,40.9401698 49.6523538,41.8064292 C49.6523538,42.6350251 49.9630773,43.3600465 50.5845242,43.9814934 C51.2059711,44.6029403 51.9309925,44.9136638 52.7595884,44.9136638 Z M97.3347013,44.0662362 L97.3347013,39.5466222 L81.7985283,39.5466222 L81.7985283,4.51961397 L76.9964384,4.51961397 L76.9964384,44.0662362 L97.3347013,44.0662362 Z M109.340136,44.6311879 C112.127231,44.6311879 114.547108,44.075652 116.599766,42.9645803 C118.652424,41.8535085 120.356695,40.2057326 121.712579,38.0212525 L118.040393,35.7049503 C117.098807,37.2868152 115.950071,38.463798 114.594187,39.2358987 C113.238303,40.0079995 111.67527,40.3940498 109.905088,40.3940498 C108.134906,40.3940498 106.628368,40.0174153 105.385474,39.2641463 C104.14258,38.5108773 103.200994,37.4186373 102.560715,35.9874262 C102.103373,34.9651326 101.809368,33.7891106 101.678698,32.4593602 L101.655742,32.2032583 L122.108045,32.2022495 C122.108045,32.1269226 122.117461,31.9480212 122.136293,31.6655453 C122.155125,31.3830695 122.164541,31.1100095 122.164541,30.8463653 C122.164541,28.0969335 121.674916,25.7241362 120.695666,23.7279733 C119.716416,21.7318105 118.313453,20.1970249 116.486775,19.1236166 C114.660098,18.0502083 112.466202,17.5135041 109.905088,17.5135041 C107.343973,17.5135041 105.093582,18.0784559 103.153914,19.2083594 C101.214247,20.3382628 99.7077086,21.9201277 98.6343003,23.953954 C97.560892,25.9877803 97.0241878,28.3605776 97.0241878,31.072346 C97.0241878,33.7464509 97.5420603,36.1004166 98.5778052,38.1342428 C99.61355,40.1680691 101.063593,41.7593499 102.927934,42.9080851 C104.792274,44.0568203 106.929675,44.6311879 109.340136,44.6311879 Z M117.224198,28.3605776 L101.826236,28.3605776 L101.889835,28.0286685 C102.064028,27.1859488 102.315903,26.42091 102.645458,25.733552 C103.304568,24.3588361 104.246154,23.3042595 105.470216,22.5698222 C106.694279,21.835385 108.172569,21.4681663 109.905088,21.4681663 C111.373962,21.4681663 112.654519,21.7883057 113.74676,22.4285843 C114.839,23.068863 115.695843,23.953954 116.31729,25.0838575 C116.835162,26.0254438 117.137255,27.1108834 117.223567,28.3401766 L117.224198,28.3605776 Z M138.633094,44.6311879 C141.005891,44.6311879 143.162124,44.0850679 145.101791,42.9928278 C147.041459,41.9005878 148.595076,40.3375546 149.762643,38.3037284 C150.93021,36.2699021 151.513994,33.8594413 151.513994,31.072346 C151.513994,28.2475873 150.93021,25.8277106 149.762643,23.8127161 C148.595076,21.7977215 147.041459,20.2441042 145.101791,19.1518642 C143.162124,18.0596241 141.005891,17.5135041 138.633094,17.5135041 C136.486277,17.5135041 134.593689,18.0596241 132.955329,19.1518642 C131.726559,19.9710442 130.699053,21.049749 129.872811,22.3879784 L129.7631,22.5718399 L129.763352,0 L125.243738,0 L125.243738,44.0662362 L129.763352,44.0662362 L129.7631,39.5557018 L129.872811,39.7408244 C130.699053,41.0896467 131.726559,42.1736478 132.955329,42.9928278 C134.593689,44.0850679 136.486277,44.6311879 138.633094,44.6311879 Z M138.068142,40.3940498 C136.749921,40.3940498 135.450532,40.036247 134.169975,39.3206415 C132.889418,38.605036 131.834841,37.5504594 131.006245,36.1569117 C130.17765,34.7633641 129.763352,33.0685088 129.763352,31.072346 C129.763352,29.0761832 130.17765,27.3813279 131.006245,25.9877803 C131.834841,24.5942327 132.889418,23.5396561 134.169975,22.8240505 C135.450532,22.108445 136.749921,21.7506422 138.068142,21.7506422 C139.687671,21.7506422 141.165961,22.108445 142.503013,22.8240505 C143.840066,23.5396561 144.913474,24.5942327 145.723238,25.9877803 C146.533003,27.3813279 146.937885,29.0761832 146.937885,31.072346 C146.937885,33.0685088 146.533003,34.7633641 145.723238,36.1569117 C144.913474,37.5504594 143.840066,38.605036 142.503013,39.3206415 C141.165961,40.036247 139.687671,40.3940498 138.068142,40.3940498 Z M167.982547,44.6311879 C170.355345,44.6311879 172.511577,44.0850679 174.451245,42.9928278 C176.390912,41.9005878 177.94453,40.3375546 179.112097,38.3037284 C180.279664,36.2699021 180.863447,33.8594413 180.863447,31.072346 C180.863447,28.2475873 180.279664,25.8277106 179.112097,23.8127161 C177.94453,21.7977215 176.390912,20.2441042 174.451245,19.1518642 C172.511577,18.0596241 170.355345,17.5135041 167.982547,17.5135041 C165.835731,17.5135041 163.943142,18.0596241 162.304782,19.1518642 C161.076012,19.9710442 160.048506,21.049749 159.222264,22.3879784 L159.112343,22.5718399 L159.112805,0 L154.593191,0 L154.593191,44.0662362 L159.112805,44.0662362 L159.112343,39.5557018 L159.222264,39.7408244 C160.048506,41.0896467 161.076012,42.1736478 162.304782,42.9928278 C163.943142,44.0850679 165.835731,44.6311879 167.982547,44.6311879 Z M167.417595,40.3940498 C166.099375,40.3940498 164.799986,40.036247 163.519428,39.3206415 C162.238871,38.605036 161.184295,37.5504594 160.355699,36.1569117 C159.527103,34.7633641 159.112805,33.0685088 159.112805,31.072346 C159.112805,29.0761832 159.527103,27.3813279 160.355699,25.9877803 C161.184295,24.5942327 162.238871,23.5396561 163.519428,22.8240505 C164.799986,22.108445 166.099375,21.7506422 167.417595,21.7506422 C169.037124,21.7506422 170.515414,22.108445 171.852467,22.8240505 C173.189519,23.5396561 174.262927,24.5942327 175.072692,25.9877803 C175.882456,27.3813279 176.287338,29.0761832 176.287338,31.072346 C176.287338,33.0685088 175.882456,34.7633641 175.072692,36.1569117 C174.262927,37.5504594 173.189519,38.605036 171.852467,39.3206415 C170.515414,40.036247 169.037124,40.3940498 167.417595,40.3940498 Z M194.281261,44.6311879 C197.068356,44.6311879 199.488233,44.075652 201.540891,42.9645803 C203.593549,41.8535085 205.29782,40.2057326 206.653704,38.0212525 L202.981518,35.7049503 C202.039932,37.2868152 200.891196,38.463798 199.535312,39.2358987 C198.179428,40.0079995 196.616395,40.3940498 194.846213,40.3940498 C193.076031,40.3940498 191.569493,40.0174153 190.326599,39.2641463 C189.083705,38.5108773 188.142119,37.4186373 187.50184,35.9874262 C187.044498,34.9651326 186.750493,33.7891106 186.619824,32.4593602 L186.597246,32.2032583 L207.04917,32.2022495 C207.04917,32.1269226 207.058586,31.9480212 207.077418,31.6655453 C207.09625,31.3830695 207.105666,31.1100095 207.105666,30.8463653 C207.105666,28.0969335 206.616041,25.7241362 205.636791,23.7279733 C204.657541,21.7318105 203.254578,20.1970249 201.427901,19.1236166 C199.601223,18.0502083 197.407327,17.5135041 194.846213,17.5135041 C192.285098,17.5135041 190.034707,18.0784559 188.095039,19.2083594 C186.155372,20.3382628 184.648834,21.9201277 183.575425,23.953954 C182.502017,25.9877803 181.965313,28.3605776 181.965313,31.072346 C181.965313,33.7464509 182.483185,36.1004166 183.51893,38.1342428 C184.554675,40.1680691 186.004718,41.7593499 187.869059,42.9080851 C189.733399,44.0568203 191.8708,44.6311879 194.281261,44.6311879 Z M202.164693,28.3605776 L186.766731,28.3605776 L186.83096,28.0286685 C187.005153,27.1859488 187.257028,26.42091 187.586583,25.733552 C188.245693,24.3588361 189.187279,23.3042595 190.411342,22.5698222 C191.635404,21.835385 193.113694,21.4681663 194.846213,21.4681663 C196.315087,21.4681663 197.595645,21.7883057 198.687885,22.4285843 C199.780125,23.068863 200.636968,23.953954 201.258415,25.0838575 C201.776288,26.0254438 202.07838,27.1108834 202.164693,28.3401766 L202.164693,28.3605776 Z" id="Dr.Lebbe" fill="#353B40"></path>
                <path d="M4.97,69.0168319 C5.71666667,69.0168319 6.38166667,68.8791652 6.965,68.6038319 C7.54833333,68.3284986 8.04066667,67.9528319 8.442,67.4768319 C8.84333333,67.0008319 9.14666667,66.4571652 9.352,65.8458319 C9.55733333,65.2344986 9.66,64.5881652 9.66,63.9068319 L5.11,63.9068319 L5.11,65.0268319 L8.372,65.0268319 C8.288,65.4094986 8.155,65.7688319 7.973,66.1048319 C7.791,66.4408319 7.56,66.7394986 7.28,67.0008319 C7,67.2621652 6.66633333,67.4651652 6.279,67.6098319 C5.89166667,67.7544986 5.45533333,67.8268319 4.97,67.8268319 C4.27933333,67.8268319 3.654,67.6634986 3.094,67.3368319 C2.534,67.0101652 2.08833333,66.5574986 1.757,65.9788319 C1.42566667,65.4001652 1.26,64.7328319 1.26,63.9768319 C1.26,63.2114986 1.42566667,62.5418319 1.757,61.9678319 C2.08833333,61.3938319 2.534,60.9434986 3.094,60.6168319 C3.654,60.2901652 4.27933333,60.1268319 4.97,60.1268319 C5.71666667,60.1268319 6.36533333,60.2738319 6.916,60.5678319 C7.46666667,60.8618319 7.896,61.2701652 8.204,61.7928319 L9.044,61.0228319 C8.764,60.5654986 8.421,60.1828319 8.015,59.8748319 C7.609,59.5668319 7.15166667,59.3334986 6.643,59.1748319 C6.13433333,59.0161652 5.57666667,58.9368319 4.97,58.9368319 C4.26066667,58.9368319 3.60266667,59.0604986 2.996,59.3078319 C2.38933333,59.5551652 1.862,59.9051652 1.414,60.3578319 C0.966,60.8104986 0.618333333,61.3448319 0.371,61.9608319 C0.123666667,62.5768319 0,63.2488319 0,63.9768319 C0,64.7048319 0.123666667,65.3768319 0.371,65.9928319 C0.618333333,66.6088319 0.966,67.1431652 1.414,67.5958319 C1.862,68.0484986 2.38933333,68.3984986 2.996,68.6458319 C3.60266667,68.8931652 4.26066667,69.0168319 4.97,69.0168319 Z M13.6850521,68.8768319 L13.6850521,64.6488319 L16.9470521,59.0768319 L15.6170521,59.0768319 L13.0830521,63.6128319 L10.5630521,59.0768319 L9.23305205,59.0768319 L12.4950521,64.6628319 L12.4950521,68.8768319 L13.6850521,68.8768319 Z M26.0401041,69.3668319 L26.0401041,59.0768319 L24.8501041,59.0768319 L24.8501041,66.3708319 L17.4301041,58.5868319 L17.4301041,68.8768319 L18.6201041,68.8768319 L18.6201041,61.5828319 L26.0401041,69.3668319 Z M27.8531562,68.8768319 L29.096,65.9378319 L33.044,65.9378319 L34.2931562,68.8768319 L35.6231562,68.8768319 L31.0731562,58.5868319 L26.5231562,68.8768319 L27.8531562,68.8768319 Z M32.574,64.8168319 L29.576,64.8168319 L31.0731562,61.2888319 L32.574,64.8168319 Z M36.1062082,59.0768319 L36.1062082,68.8768319 L37.296,68.8768319 L41.7062082,68.8768319 L41.7062082,67.7568319 L37.296,67.7568319 L37.296,64.1168319 L41.4262082,64.1168319 L41.4262082,62.9968319 L37.296,62.9978319 L37.296,60.1968319 L41.7062082,60.1968319 L41.7062082,59.0768319 L37.2962082,59.0768319 L36.7642082,59.0768319 L36.1062082,59.0768319 Z M47.4392603,69.0168319 C48.1579269,69.0168319 48.7599269,68.9281652 49.2452603,68.7508319 C49.7305936,68.5734986 50.1785936,68.3028319 50.5892603,67.9388319 L50.5892603,66.3708319 C50.3652603,66.6601652 50.0945936,66.9144986 49.7772603,67.1338319 C49.4599269,67.3531652 49.1075936,67.5234986 48.7202603,67.6448319 C48.3329269,67.7661652 47.9059269,67.8268319 47.4392603,67.8268319 C46.7952603,67.8268319 46.1979269,67.6634986 45.6472603,67.3368319 C45.0965936,67.0101652 44.6509269,66.5574986 44.3102603,65.9788319 C43.9695936,65.4001652 43.7992603,64.7328319 43.7992603,63.9768319 C43.7992603,63.2114986 43.9695936,62.5418319 44.3102603,61.9678319 C44.6509269,61.3938319 45.0965936,60.9434986 45.6472603,60.6168319 C46.1979269,60.2901652 46.7952603,60.1268319 47.4392603,60.1268319 C47.9059269,60.1268319 48.3329269,60.1874986 48.7202603,60.3088319 C49.1075936,60.4301652 49.4599269,60.6004986 49.7772603,60.8198319 C50.0945936,61.0391652 50.3652603,61.2934986 50.5892603,61.5828319 L50.5892603,60.0148319 C50.1785936,59.6508319 49.7305936,59.3801652 49.2452603,59.2028319 C48.7599269,59.0254986 48.1579269,58.9368319 47.4392603,58.9368319 C46.7579269,58.9368319 46.1209269,59.0604986 45.5282603,59.3078319 C44.9355936,59.5551652 44.4152603,59.9051652 43.9672603,60.3578319 C43.5192603,60.8104986 43.1692603,61.3448319 42.9172603,61.9608319 C42.6652603,62.5768319 42.5392603,63.2488319 42.5392603,63.9768319 C42.5392603,64.7048319 42.6652603,65.3768319 42.9172603,65.9928319 C43.1692603,66.6088319 43.5192603,67.1431652 43.9672603,67.5958319 C44.4152603,68.0484986 44.9355936,68.3984986 45.5282603,68.6458319 C46.1209269,68.8931652 46.7579269,69.0168319 47.4392603,69.0168319 Z M56.3923123,69.0168319 C57.110979,69.0168319 57.7713123,68.8884986 58.3733123,68.6318319 C58.9753123,68.3751652 59.5003123,68.0204986 59.9483123,67.5678319 C60.3963123,67.1151652 60.743979,66.5808319 60.9913123,65.9648319 C61.2386456,65.3488319 61.3623123,64.6861652 61.3623123,63.9768319 C61.3623123,63.2581652 61.2386456,62.5931652 60.9913123,61.9818319 C60.743979,61.3704986 60.3963123,60.8384986 59.9483123,60.3858319 C59.5003123,59.9331652 58.9753123,59.5784986 58.3733123,59.3218319 C57.7713123,59.0651652 57.110979,58.9368319 56.3923123,58.9368319 C55.682979,58.9368319 55.024979,59.0651652 54.4183123,59.3218319 C53.8116456,59.5784986 53.2843123,59.9331652 52.8363123,60.3858319 C52.3883123,60.8384986 52.0406456,61.3704986 51.7933123,61.9818319 C51.545979,62.5931652 51.4223123,63.2581652 51.4223123,63.9768319 C51.4223123,64.6861652 51.545979,65.3488319 51.7933123,65.9648319 C52.0406456,66.5808319 52.3883123,67.1151652 52.8363123,67.5678319 C53.2843123,68.0204986 53.8116456,68.3751652 54.4183123,68.6318319 C55.024979,68.8884986 55.682979,69.0168319 56.3923123,69.0168319 Z M56.3923123,67.8268319 C55.682979,67.8268319 55.0483123,67.6588319 54.4883123,67.3228319 C53.9283123,66.9868319 53.4873123,66.5294986 53.1653123,65.9508319 C52.8433123,65.3721652 52.6823123,64.7141652 52.6823123,63.9768319 C52.6823123,63.2394986 52.8433123,62.5814986 53.1653123,62.0028319 C53.4873123,61.4241652 53.9283123,60.9668319 54.4883123,60.6308319 C55.0483123,60.2948319 55.682979,60.1268319 56.3923123,60.1268319 C57.110979,60.1268319 57.747979,60.2948319 58.3033123,60.6308319 C58.8586456,60.9668319 59.2973123,61.4241652 59.6193123,62.0028319 C59.9413123,62.5814986 60.1023123,63.2394986 60.1023123,63.9768319 C60.1023123,64.7141652 59.9413123,65.3721652 59.6193123,65.9508319 C59.2973123,66.5294986 58.8586456,66.9868319 58.3033123,67.3228319 C57.747979,67.6588319 57.110979,67.8268319 56.3923123,67.8268319 Z M67.3753644,68.8768319 L67.3753644,67.7568319 L63.5253644,67.7568319 L63.5253644,59.0768319 L62.3353644,59.0768319 L62.3353644,68.8768319 L67.3753644,68.8768319 Z M71.9184164,69.0168319 C72.6370831,69.0168319 73.2974164,68.8884986 73.8994164,68.6318319 C74.5014164,68.3751652 75.0264164,68.0204986 75.4744164,67.5678319 C75.9224164,67.1151652 76.2700831,66.5808319 76.5174164,65.9648319 C76.7647497,65.3488319 76.8884164,64.6861652 76.8884164,63.9768319 C76.8884164,63.2581652 76.7647497,62.5931652 76.5174164,61.9818319 C76.2700831,61.3704986 75.9224164,60.8384986 75.4744164,60.3858319 C75.0264164,59.9331652 74.5014164,59.5784986 73.8994164,59.3218319 C73.2974164,59.0651652 72.6370831,58.9368319 71.9184164,58.9368319 C71.2090831,58.9368319 70.5510831,59.0651652 69.9444164,59.3218319 C69.3377497,59.5784986 68.8104164,59.9331652 68.3624164,60.3858319 C67.9144164,60.8384986 67.5667497,61.3704986 67.3194164,61.9818319 C67.0720831,62.5931652 66.9484164,63.2581652 66.9484164,63.9768319 C66.9484164,64.6861652 67.0720831,65.3488319 67.3194164,65.9648319 C67.5667497,66.5808319 67.9144164,67.1151652 68.3624164,67.5678319 C68.8104164,68.0204986 69.3377497,68.3751652 69.9444164,68.6318319 C70.5510831,68.8884986 71.2090831,69.0168319 71.9184164,69.0168319 Z M71.9184164,67.8268319 C71.2090831,67.8268319 70.5744164,67.6588319 70.0144164,67.3228319 C69.4544164,66.9868319 69.0134164,66.5294986 68.6914164,65.9508319 C68.3694164,65.3721652 68.2084164,64.7141652 68.2084164,63.9768319 C68.2084164,63.2394986 68.3694164,62.5814986 68.6914164,62.0028319 C69.0134164,61.4241652 69.4544164,60.9668319 70.0144164,60.6308319 C70.5744164,60.2948319 71.2090831,60.1268319 71.9184164,60.1268319 C72.6370831,60.1268319 73.2740831,60.2948319 73.8294164,60.6308319 C74.3847497,60.9668319 74.8234164,61.4241652 75.1454164,62.0028319 C75.4674164,62.5814986 75.6284164,63.2394986 75.6284164,63.9768319 C75.6284164,64.7141652 75.4674164,65.3721652 75.1454164,65.9508319 C74.8234164,66.5294986 74.3847497,66.9868319 73.8294164,67.3228319 C73.2740831,67.6588319 72.6370831,67.8268319 71.9184164,67.8268319 Z M82.2714685,69.0168319 C83.0181351,69.0168319 83.6831351,68.8791652 84.2664685,68.6038319 C84.8498018,68.3284986 85.3421351,67.9528319 85.7434685,67.4768319 C86.1448018,67.0008319 86.4481351,66.4571652 86.6534685,65.8458319 C86.8588018,65.2344986 86.9614685,64.5881652 86.9614685,63.9068319 L82.4114685,63.9068319 L82.4114685,65.0268319 L85.6734685,65.0268319 C85.5894685,65.4094986 85.4564685,65.7688319 85.2744685,66.1048319 C85.0924685,66.4408319 84.8614685,66.7394986 84.5814685,67.0008319 C84.3014685,67.2621652 83.9678018,67.4651652 83.5804685,67.6098319 C83.1931351,67.7544986 82.7568018,67.8268319 82.2714685,67.8268319 C81.5808018,67.8268319 80.9554685,67.6634986 80.3954685,67.3368319 C79.8354685,67.0101652 79.3898018,66.5574986 79.0584685,65.9788319 C78.7271351,65.4001652 78.5614685,64.7328319 78.5614685,63.9768319 C78.5614685,63.2114986 78.7271351,62.5418319 79.0584685,61.9678319 C79.3898018,61.3938319 79.8354685,60.9434986 80.3954685,60.6168319 C80.9554685,60.2901652 81.5808018,60.1268319 82.2714685,60.1268319 C83.0181351,60.1268319 83.6668018,60.2738319 84.2174685,60.5678319 C84.7681351,60.8618319 85.1974685,61.2701652 85.5054685,61.7928319 L86.3454685,61.0228319 C86.0654685,60.5654986 85.7224685,60.1828319 85.3164685,59.8748319 C84.9104685,59.5668319 84.4531351,59.3334986 83.9444685,59.1748319 C83.4358018,59.0161652 82.8781351,58.9368319 82.2714685,58.9368319 C81.5621351,58.9368319 80.9041351,59.0604986 80.2974685,59.3078319 C79.6908018,59.5551652 79.1634685,59.9051652 78.7154685,60.3578319 C78.2674685,60.8104986 77.9198018,61.3448319 77.6724685,61.9608319 C77.4251351,62.5768319 77.3014685,63.2488319 77.3014685,63.9768319 C77.3014685,64.7048319 77.4251351,65.3768319 77.6724685,65.9928319 C77.9198018,66.6088319 78.2674685,67.1431652 78.7154685,67.5958319 C79.1634685,68.0484986 79.6908018,68.3984986 80.2974685,68.6458319 C80.9041351,68.8931652 81.5621351,69.0168319 82.2714685,69.0168319 Z M89.1945205,68.8768319 L89.1945205,59.0768319 L88.0045205,59.0768319 L88.0045205,68.8768319 L89.1945205,68.8768319 Z M90.7275726,59.0768319 L90.7275726,68.8768319 L91.917,68.8768319 L96.3275726,68.8768319 L96.3275726,67.7568319 L91.917,67.7568319 L91.917,64.1168319 L96.0475726,64.1168319 L96.0475726,62.9968319 L91.917,62.9978319 L91.917,60.1968319 L96.3275726,60.1968319 L96.3275726,59.0768319 L91.9175726,59.0768319 L91.3855726,59.0768319 L90.7275726,59.0768319 Z" id="GYNAECOLOGIE" fill="#353B40"></path>
                <path d="M125.56,69.3668319 L130.11,59.0768319 L128.78,59.0768319 L125.56,66.6648319 L122.34,59.0768319 L121.01,59.0768319 L125.56,69.3668319 Z M130.593052,59.0768319 L130.593052,68.8768319 L131.783,68.8768319 L136.193052,68.8768319 L136.193052,67.7568319 L131.783,67.7568319 L131.783,64.1168319 L135.913052,64.1168319 L135.913052,62.9968319 L131.783,62.9978319 L131.783,60.1968319 L136.193052,60.1968319 L136.193052,59.0768319 L131.783052,59.0768319 L131.251052,59.0768319 L130.593052,59.0768319 Z M137.586104,59.0768319 L137.586104,68.8768319 L138.776104,68.8768319 L138.776,64.9568319 L139.969,64.9568319 L142.696104,68.8768319 L144.166104,68.8768319 L141.245,64.8458319 L141.267818,64.8402605 C141.506676,64.7819747 141.733104,64.7018319 141.947104,64.5998319 C142.446437,64.3618319 142.843104,64.0211652 143.137104,63.5778319 C143.431104,63.1344986 143.578104,62.6141652 143.578104,62.0168319 C143.578104,61.4101652 143.431104,60.8874986 143.137104,60.4488319 C142.843104,60.0101652 142.446437,59.6718319 141.947104,59.4338319 C141.447771,59.1958319 140.880771,59.0768319 140.246104,59.0768319 L138.244104,59.0768319 L137.586104,59.0768319 Z M138.776,60.1268319 L140.246104,60.1268319 C140.666104,60.1268319 141.037104,60.2014986 141.359104,60.3508319 C141.681104,60.5001652 141.933104,60.7148319 142.115104,60.9948319 C142.297104,61.2748319 142.388104,61.6154986 142.388104,62.0168319 C142.388104,62.4181652 142.297104,62.7588319 142.115104,63.0388319 C141.933104,63.3188319 141.681104,63.5334986 141.359104,63.6828319 C141.037104,63.8321652 140.666104,63.9068319 140.246104,63.9068319 L138.776,63.9078319 L138.776,60.1268319 Z M149.759156,68.8768319 L149.759156,67.7568319 L145.909156,67.7568319 L145.909156,59.0768319 L144.719156,59.0768319 L144.719156,68.8768319 L149.759156,68.8768319 Z M154.302208,69.0168319 C155.020875,69.0168319 155.681208,68.8884986 156.283208,68.6318319 C156.885208,68.3751652 157.410208,68.0204986 157.858208,67.5678319 C158.306208,67.1151652 158.653875,66.5808319 158.901208,65.9648319 C159.148542,65.3488319 159.272208,64.6861652 159.272208,63.9768319 C159.272208,63.2581652 159.148542,62.5931652 158.901208,61.9818319 C158.653875,61.3704986 158.306208,60.8384986 157.858208,60.3858319 C157.410208,59.9331652 156.885208,59.5784986 156.283208,59.3218319 C155.681208,59.0651652 155.020875,58.9368319 154.302208,58.9368319 C153.592875,58.9368319 152.934875,59.0651652 152.328208,59.3218319 C151.721542,59.5784986 151.194208,59.9331652 150.746208,60.3858319 C150.298208,60.8384986 149.950542,61.3704986 149.703208,61.9818319 C149.455875,62.5931652 149.332208,63.2581652 149.332208,63.9768319 C149.332208,64.6861652 149.455875,65.3488319 149.703208,65.9648319 C149.950542,66.5808319 150.298208,67.1151652 150.746208,67.5678319 C151.194208,68.0204986 151.721542,68.3751652 152.328208,68.6318319 C152.934875,68.8884986 153.592875,69.0168319 154.302208,69.0168319 Z M154.302208,67.8268319 C153.592875,67.8268319 152.958208,67.6588319 152.398208,67.3228319 C151.838208,66.9868319 151.397208,66.5294986 151.075208,65.9508319 C150.753208,65.3721652 150.592208,64.7141652 150.592208,63.9768319 C150.592208,63.2394986 150.753208,62.5814986 151.075208,62.0028319 C151.397208,61.4241652 151.838208,60.9668319 152.398208,60.6308319 C152.958208,60.2948319 153.592875,60.1268319 154.302208,60.1268319 C155.020875,60.1268319 155.657875,60.2948319 156.213208,60.6308319 C156.768542,60.9668319 157.207208,61.4241652 157.529208,62.0028319 C157.851208,62.5814986 158.012208,63.2394986 158.012208,63.9768319 C158.012208,64.7141652 157.851208,65.3721652 157.529208,65.9508319 C157.207208,66.5294986 156.768542,66.9868319 156.213208,67.3228319 C155.657875,67.6588319 155.020875,67.8268319 154.302208,67.8268319 Z M163.15726,69.0168319 C163.54926,69.0168319 163.924927,68.9514986 164.28426,68.8208319 C164.643594,68.6901652 164.965594,68.5034986 165.25026,68.2608319 C165.534927,68.0181652 165.758927,67.7241652 165.92226,67.3788319 C166.085594,67.0334986 166.16726,66.6461652 166.16726,66.2168319 C166.16726,65.7688319 166.087927,65.3838319 165.92926,65.0618319 C165.770594,64.7398319 165.567594,64.4644986 165.32026,64.2358319 C165.072927,64.0071652 164.804594,63.8181652 164.51526,63.6688319 C164.225927,63.5194986 163.950594,63.3981652 163.68926,63.3048319 C163.119927,63.1088319 162.669594,62.9104986 162.33826,62.7098319 C162.006927,62.5091652 161.77126,62.2944986 161.63126,62.0658319 C161.49126,61.8371652 161.42126,61.5874986 161.42126,61.3168319 C161.42126,60.9994986 161.542594,60.7124986 161.78526,60.4558319 C162.027927,60.1991652 162.41526,60.0708319 162.94726,60.0708319 C163.329927,60.0708319 163.65426,60.1454986 163.92026,60.2948319 C164.18626,60.4441652 164.412594,60.6354986 164.59926,60.8688319 C164.785927,61.1021652 164.939927,61.3401652 165.06126,61.5828319 L166.08326,60.9948319 C165.924594,60.6494986 165.70526,60.3204986 165.42526,60.0078319 C165.14526,59.6951652 164.806927,59.4384986 164.41026,59.2378319 C164.013594,59.0371652 163.54926,58.9368319 163.01726,58.9368319 C162.466594,58.9368319 161.976594,59.0464986 161.54726,59.2658319 C161.117927,59.4851652 160.781927,59.7861652 160.53926,60.1688319 C160.296594,60.5514986 160.17526,60.9854986 160.17526,61.4708319 C160.17526,61.9188319 160.261594,62.2968319 160.43426,62.6048319 C160.606927,62.9128319 160.828594,63.1718319 161.09926,63.3818319 C161.369927,63.5918319 161.654594,63.7644986 161.95326,63.8998319 C162.251927,64.0351652 162.522594,64.1448319 162.76526,64.2288319 C163.138594,64.3594986 163.490927,64.5064986 163.82226,64.6698319 C164.153594,64.8331652 164.421927,65.0454986 164.62726,65.3068319 C164.832594,65.5681652 164.93526,65.9181652 164.93526,66.3568319 C164.93526,66.8048319 164.776594,67.1734986 164.45926,67.4628319 C164.141927,67.7521652 163.721927,67.8968319 163.19926,67.8968319 C162.80726,67.8968319 162.45726,67.8128319 162.14926,67.6448319 C161.84126,67.4768319 161.563594,67.2434986 161.31626,66.9448319 C161.068927,66.6461652 160.83326,66.3008319 160.60926,65.9088319 L159.65726,66.5528319 C159.871927,66.9821652 160.149594,67.3858319 160.49026,67.7638319 C160.830927,68.1418319 161.227594,68.4451652 161.68026,68.6738319 C162.132927,68.9024986 162.62526,69.0168319 163.15726,69.0168319 Z M168.400312,68.8768319 L168.4,64.1228319 L172.460312,68.8768319 L173.930312,68.8768319 L169.478312,63.6688319 L173.720312,59.0768319 L172.250312,59.0768319 L168.4,63.2978319 L168.400312,59.0768319 L167.210312,59.0768319 L167.210312,68.8768319 L168.400312,68.8768319 Z M177.675364,69.0168319 C178.179364,69.0168319 178.636698,68.9328319 179.047364,68.7648319 C179.458031,68.5968319 179.810364,68.3634986 180.104364,68.0648319 C180.398364,67.7661652 180.622364,67.4114986 180.776364,67.0008319 C180.930364,66.5901652 181.007364,66.1421652 181.007364,65.6568319 L181.007364,59.0768319 L179.817364,59.0768319 L179.817364,65.6568319 C179.817364,66.3288319 179.635364,66.8701652 179.271364,67.2808319 C178.907364,67.6914986 178.375364,67.8968319 177.675364,67.8968319 C176.975364,67.8968319 176.443364,67.6914986 176.079364,67.2808319 C175.715364,66.8701652 175.533364,66.3288319 175.533364,65.6568319 L175.533364,59.0768319 L174.343364,59.0768319 L174.343364,65.6568319 C174.343364,66.1421652 174.420364,66.5901652 174.574364,67.0008319 C174.728364,67.4114986 174.952364,67.7661652 175.246364,68.0648319 C175.540364,68.3634986 175.892698,68.5968319 176.303364,68.7648319 C176.714031,68.9328319 177.171364,69.0168319 177.675364,69.0168319 Z M191.080416,69.3668319 L191.080416,59.0768319 L189.890416,59.0768319 L189.890416,66.3708319 L182.470416,58.5868319 L182.470416,68.8768319 L183.660416,68.8768319 L183.660416,61.5828319 L191.080416,69.3668319 Z M192.613468,59.0768319 L192.613468,68.8768319 L193.803,68.8768319 L195.553468,68.8768319 C196.505468,68.8768319 197.350135,68.6714986 198.087468,68.2608319 C198.824802,67.8501652 199.403468,67.2784986 199.823468,66.5458319 C200.243468,65.8131652 200.453468,64.9568319 200.453468,63.9768319 C200.453468,62.9968319 200.243468,62.1404986 199.823468,61.4078319 C199.403468,60.6751652 198.824802,60.1034986 198.087468,59.6928319 C197.350135,59.2821652 196.505468,59.0768319 195.553468,59.0768319 L193.271468,59.0768319 L192.613468,59.0768319 Z M193.803,60.2668319 L195.553468,60.2668319 C196.104135,60.2668319 196.608135,60.3531652 197.065468,60.5258319 C197.522802,60.6984986 197.914802,60.9458319 198.241468,61.2678319 C198.568135,61.5898319 198.820135,61.9794986 198.997468,62.4368319 C199.174802,62.8941652 199.263468,63.4074986 199.263468,63.9768319 C199.263468,64.5461652 199.174802,65.0594986 198.997468,65.5168319 C198.820135,65.9741652 198.568135,66.3638319 198.241468,66.6858319 C197.914802,67.0078319 197.522802,67.2551652 197.065468,67.4278319 C196.608135,67.6004986 196.104135,67.6868319 195.553468,67.6868319 L193.803,67.6878319 L193.803,60.2668319 Z M201.426521,59.0768319 L201.426521,68.8768319 L202.616,68.8768319 L207.026521,68.8768319 L207.026521,67.7568319 L202.616,67.7568319 L202.616,64.1168319 L206.746521,64.1168319 L206.746521,62.9968319 L202.616,62.9978319 L202.616,60.1968319 L207.026521,60.1968319 L207.026521,59.0768319 L202.616521,59.0768319 L202.084521,59.0768319 L201.426521,59.0768319 Z" id="VERLOSKUNDE" fill="#353B40"></path>
                <path d="M108.968786,63.9568319 C109.30612,63.9568319 109.59212,63.8358319 109.826786,63.5938319 C110.061453,63.3518319 110.178786,63.0694986 110.178786,62.7468319 C110.178786,62.4094986 110.061453,62.1234986 109.826786,61.8888319 C109.59212,61.6541652 109.30612,61.5368319 108.968786,61.5368319 C108.64612,61.5368319 108.363786,61.6541652 108.121786,61.8888319 C107.879786,62.1234986 107.758786,62.4094986 107.758786,62.7468319 C107.758786,63.0694986 107.879786,63.3518319 108.121786,63.5938319 C108.363786,63.8358319 108.64612,63.9568319 108.968786,63.9568319 Z" id="•" fill="#000000"></path>
            </g>
        </g>
    </g>
</svg>